<svg xmlns="http://www.w3.org/2000/svg" xml:space="preserve" width="1176.219" height="300" viewBox="0 0 1176.219 300"><defs><clipPath id="a" clipPathUnits="userSpaceOnUse"><path d="M0 268.981h1015.614V0H0Z"/></clipPath></defs><g clip-path="url(#a)" style="fill:#fff" transform="matrix(1.19962 0 0 -1.19962 -21.195 312.645)"><g style="fill:#fff"><path d="M0 0c-8.543 4.423-18.22 6.922-28.519 6.922-3.081 0-6.109-.227-9.104-.668l6.657 46.084a38.299 38.299 0 0 0 12.185 1.976c6.837 0 13.253-1.769 18.781-4.933 5.542 3.164 11.944 4.933 18.777 4.933 4.268 0 8.358-.688 12.196-1.976l6.64-46.084a61.9 61.9 0 0 1-9.084.668A61.935 61.935 0 0 1 0 0" style="fill:#fff;fill-opacity:1;fill-rule:nonzero;stroke:none" transform="translate(103.01 86.36)"/></g><g style="fill:#fff"><path d="M0 0c-8.244 5.411-18.02 8.578-28.619 8.578-3.652 0-7.228-.379-10.653-1.081A76.47 76.47 0 0 1-4.809-26.302l.121-18.361A114.497 114.497 0 0 0-32.66-28.302 93.069 93.069 0 0 0-68.961-41l-4.031 12.079c10.964 1.08 21.304 4.33 30.553 9.352-20.674 20.681-33.482 49.261-33.482 80.822h-9.421v23.428H-4.65V68.045a42.586 42.586 0 0 1-14.437 2.516 42.556 42.556 0 0 1-15.834-3.032l-8.058-55.97a57.703 57.703 0 0 0 14.46 1.841C-18.116 13.4-8.402 10.643 0 5.769 8.413 10.643 18.137 13.4 28.529 13.4a57.79 57.79 0 0 0 14.468-1.841l-8.073 55.97a42.406 42.406 0 0 1-15.82 3.032c-5.077 0-9.934-.895-14.45-2.516v16.636h80.702V61.253h-9.425c0-31.561-12.791-60.141-33.465-80.822 9.242-5.022 19.562-8.272 30.543-9.352L68.975-41a93.197 93.197 0 0 0-36.308 12.698A114.753 114.753 0 0 0 4.699-44.663l.137 18.361C19.658-19.07 31.75-7.174 39.282 7.497a53.157 53.157 0 0 1-10.65 1.081C18.034 8.578 8.254 5.411 0 0" style="fill:#fff;fill-opacity:1;fill-rule:nonzero;stroke:none" transform="translate(103.01 74.835)"/></g><g style="fill:#fff"><path d="M0 0h10.154l4.833 84.413-8.949-6.75z" style="fill:#fff;fill-opacity:1;fill-rule:nonzero;stroke:none" transform="translate(61.826 165.88)"/></g><g style="fill:#fff"><path d="M0 0h10.327l7.51 73.979-9.166-6.925z" style="fill:#fff;fill-opacity:1;fill-rule:nonzero;stroke:none" transform="translate(45.123 165.88)"/></g><g style="fill:#fff"><path d="m0 0-3.662-88.244h9.834L8.62 6.499Z" style="fill:#fff;fill-opacity:1;fill-rule:nonzero;stroke:none" transform="translate(81.88 254.122)"/></g><g style="fill:#fff"><path d="M0 0h-10.151l-4.829 84.413 8.946-6.75z" style="fill:#fff;fill-opacity:1;fill-rule:nonzero;stroke:none" transform="translate(143.993 165.88)"/></g><g style="fill:#fff"><path d="M0 0h-10.33l-7.518 73.979 9.17-6.925z" style="fill:#fff;fill-opacity:1;fill-rule:nonzero;stroke:none" transform="translate(160.705 165.88)"/></g><g style="fill:#fff"><path d="m0 0 3.666-88.244h-9.841L-8.623 6.499Z" style="fill:#fff;fill-opacity:1;fill-rule:nonzero;stroke:none" transform="translate(123.944 254.122)"/></g><g style="fill:#fff"><path d="M0 0c2.675-4.654 7.511-8.32 11.438-11.803C9.07-7.205 7.621-1.976 7.349 3.573 5.749 2.526 2.072.929 0 0" style="fill:#fff;fill-opacity:1;fill-rule:nonzero;stroke:none" transform="translate(60.975 36.313)"/></g><g style="fill:#fff"><path d="m0 0 4.688 1.928-9.087 11.562S-1.649 2.203 0 0" style="fill:#fff;fill-opacity:1;fill-rule:nonzero;stroke:none" transform="translate(47.754 55.123)"/></g><g style="fill:#fff"><path d="M0 0c3.927 3.483 8.757 7.146 11.441 11.803-2.071.926-5.755 2.527-7.352 3.573C3.81 9.824 2.378 4.599 0 0" style="fill:#fff;fill-opacity:1;fill-rule:nonzero;stroke:none" transform="translate(133.557 24.511)"/></g><g style="fill:#fff"><path d="M0 0c-8.396 0-12.554 4.13-15.996 10.458-4.936 2.812-10.998 6.481-13.452 8.587C-27.231 4.068-14.884-7.38-.021-7.418h.045c14.857.038 27.207 11.486 29.42 26.463-2.444-2.106-8.515-5.775-13.451-8.587C12.564 4.13 8.396 0 0 0" style="fill:#fff;fill-opacity:1;fill-rule:nonzero;stroke:none" transform="translate(102.985 17.959)"/></g><g style="fill:#fff"><path d="m0 0 4.674-1.928c1.659 2.2 4.413 13.487 4.413 13.487z" style="fill:#fff;fill-opacity:1;fill-rule:nonzero;stroke:none" transform="translate(153.531 57.052)"/></g><g style="fill:#fff"><path d="M0 0c11.724-20.316 48.452-19.542 48.452-19.542v10.94c-31.258 0-37.12 16.805-37.12 28.918v15.631h27.352v11.72h-77.367v-11.72h27.355V20.316c0-12.113-5.862-28.918-37.117-28.918v-10.94S-11.721-20.316 0 0" style="fill:#fff;fill-opacity:1;fill-rule:nonzero;stroke:none" transform="translate(312.616 180.801)"/></g><g style="fill:#fff"><path d="M0 0h-25.789v-12.117H0v-46.101h13.09a8.394 8.394 0 0 1 8.396 8.396v82.64H0Z" style="fill:#fff;fill-opacity:1;fill-rule:nonzero;stroke:none" transform="translate(374.357 202.68)"/></g><g style="fill:#fff"><path d="M0 0h-12.368v47.926h-21.496v-86.482h-49.099v67.209h34.253v12.113h-55.743v-83.033a8.397 8.397 0 0 1 8.399-8.402h62.19v-38.102h13.091a8.406 8.406 0 0 1 8.405 8.406v68.252H0v-76.658h13.091c4.64 0 8.395 3.766 8.395 8.406V47.926H0Z" style="fill:#fff;fill-opacity:1;fill-rule:nonzero;stroke:none" transform="translate(681.737 187.571)"/></g><g style="fill:#fff"><path d="M0 0h-21.493v-83.484h13.084c4.647 0 8.409 3.755 8.409 8.396v30.153h18.361v12.117H0Z" style="fill:#fff;fill-opacity:1;fill-rule:nonzero;stroke:none" transform="translate(845.983 235.498)"/></g><g style="fill:#fff"><path d="M0 0h62.004v-13.938H15.115v-12.113h92.602v-32.301h13.09a8.397 8.397 0 0 1 8.399 8.399v36.015H85.449V0h58.868v12.113H0Z" style="fill:#fff;fill-opacity:1;fill-rule:nonzero;stroke:none" transform="translate(414.728 157.225)"/></g><g style="fill:#fff"><path d="M0 0v53.333h-21.493V0h-13.414v53.333H-56.4V0h-24.746v-12.113H49.103V0Z" style="fill:#fff;fill-opacity:1;fill-rule:nonzero;stroke:none" transform="translate(948.617 124.528)"/></g><g style="fill:#fff"><path d="M0 0h92.605v-32.298h13.091c4.64 0 8.406 3.755 8.406 8.395v36.016H0Z" style="fill:#fff;fill-opacity:1;fill-rule:nonzero;stroke:none" transform="translate(731.491 131.173)"/></g><g style="fill:#fff"><path d="M0 0h13.083a8.4 8.4 0 0 1 8.403 8.399V85.576H-85.318V73.463H0Z" style="fill:#fff;fill-opacity:1;fill-rule:nonzero;stroke:none" transform="translate(965.29 142.636)"/></g><g style="fill:#fff"><path d="M0 0h-21.486v-36.146a8.393 8.393 0 0 1 8.395-8.396H94.165v12.109H0Z" style="fill:#fff;fill-opacity:1;fill-rule:nonzero;stroke:none" transform="translate(301.676 150.32)"/></g><path d="M451.202 204.634h70.727v-14.33h-70.727zm-13.087-26.439h105.304v54.052h-21.49v-15.5h-70.727v15.5H429.71v-45.653a8.397 8.397 0 0 1 8.405-8.399" style="fill:#fff;fill-opacity:1;fill-rule:nonzero;stroke:none"/><g style="fill:#fff"><path d="M0 0c-11.218 0-20.319 9.098-20.319 20.312 0 11.229 9.101 20.319 20.319 20.319 11.218 0 20.315-9.09 20.315-20.319C20.315 9.098 11.218 0 0 0m-36.994 20.312C-36.994-.114-20.43-16.674 0-16.674c20.429 0 36.993 16.56 36.993 36.986 0 10.723-4.581 20.34-11.868 27.094h19.42v12.116H11.721v15.47h-23.445v-15.47h-32.821V47.406h19.417c-7.284-6.754-11.866-16.371-11.866-27.094" style="fill:#fff;fill-opacity:1;fill-rule:nonzero;stroke:none" transform="translate(769.136 167.122)"/></g><g style="fill:#fff"><path d="M0 0a4.226 4.226 0 0 0-4.216-4.22h-2.62A4.223 4.223 0 0 0-11.049 0h-6.114c0-5.697 4.634-10.33 10.327-10.33h2.62C1.474-10.33 6.106-5.697 6.106 0v22.539H0Z" style="fill:#fff;fill-opacity:1;fill-rule:nonzero;stroke:none" transform="translate(286.613 55.188)"/></g><g style="fill:#fff"><path d="M0 0c0-2.324-1.89-4.22-4.217-4.22h-5.669A4.227 4.227 0 0 0-14.106 0v22.539h-6.107V0c0-5.697 4.633-10.33 10.327-10.33h5.669C1.48-10.33 6.106-5.697 6.106 0v22.539H0Z" style="fill:#fff;fill-opacity:1;fill-rule:nonzero;stroke:none" transform="translate(435.899 55.188)"/></g><g style="fill:#fff"><path d="M0 0a4.225 4.225 0 0 0-4.213-4.22h-5.676A4.226 4.226 0 0 0-14.106 0v22.539h-6.106V0c0-5.697 4.633-10.33 10.323-10.33h5.676C1.48-10.33 6.113-5.697 6.113 0v22.539H0Z" style="fill:#fff;fill-opacity:1;fill-rule:nonzero;stroke:none" transform="translate(751.963 55.188)"/></g><g style="fill:#fff"><path d="M0 0h23.121v6.11H6.106v6.981H19.41v6.103H6.106v6.547h17.015v6.11H0Z" style="fill:#fff;fill-opacity:1;fill-rule:nonzero;stroke:none" transform="translate(297.23 45.661)"/></g><g style="fill:#fff"><path d="M0 0h-6.11v-32.071h23.128v6.113H0Z" style="fill:#fff;fill-opacity:1;fill-rule:nonzero;stroke:none" transform="translate(696.495 77.368)"/></g><g style="fill:#fff"><path d="M0 0h23.125v6.11H6.106v6.981H19.41v6.103H6.106v6.547h17.019v6.11H0Z" style="fill:#fff;fill-opacity:1;fill-rule:nonzero;stroke:none" transform="translate(838.72 45.661)"/></g><g style="fill:#fff"><path d="M0 0c-5.559 0-10.082 4.52-10.082 10.075 0 5.552 4.523 10.079 10.082 10.079 5.556 0 10.079-4.527 10.079-10.079C10.079 4.52 5.556 0 0 0m0 26.567c-9.091 0-16.488-7.401-16.488-16.492C-16.488.981-9.091-6.42 0-6.42c9.094 0 16.492 7.401 16.492 16.495 0 9.091-7.398 16.492-16.492 16.492" style="fill:#fff;fill-opacity:1;fill-rule:nonzero;stroke:none" transform="translate(338.024 51.292)"/></g><g style="fill:#fff"><path d="M0 0c-5.556 0-10.075 4.52-10.075 10.075 0 5.552 4.519 10.079 10.075 10.079 5.556 0 10.082-4.527 10.082-10.079C10.082 4.52 5.556 0 0 0m0 26.567c-9.091 0-16.492-7.401-16.492-16.492C-16.492.981-9.091-6.42 0-6.42c9.094 0 16.488 7.401 16.488 16.495 0 9.091-7.394 16.492-16.488 16.492" style="fill:#fff;fill-opacity:1;fill-rule:nonzero;stroke:none" transform="translate(607.113 51.292)"/></g><g style="fill:#fff"><path d="M0 0h10.802v-26.068h6.106V0h10.795v6.11H0Z" style="fill:#fff;fill-opacity:1;fill-rule:nonzero;stroke:none" transform="translate(548.723 71.294)"/></g><g style="fill:#fff"><path d="M0 0h10.801v-26.068h6.107V0h10.798v6.11H0Z" style="fill:#fff;fill-opacity:1;fill-rule:nonzero;stroke:none" transform="translate(937.454 71.294)"/></g><g style="fill:#fff"><path d="m0 0-12.12-11.834-.674-.658V0h-6.107v-32.071h6.107v12.457l.674-.66L0-32.105h8.038L-7.917-16.054 8.038 0Z" style="fill:#fff;fill-opacity:1;fill-rule:nonzero;stroke:none" transform="translate(463.75 77.296)"/></g><g style="fill:#fff"><path d="m0 0-14.34 20.925-.062-.038v.207h-6.107v-32.071h6.107v21.18L0-10.812v-.165h6.11v32.071H0Z" style="fill:#fff;fill-opacity:1;fill-rule:nonzero;stroke:none" transform="translate(377.509 56.203)"/></g><path d="M581.41 45.224h6.106v32.071h-6.106zM795.673 45.224h6.103v32.071h-6.103zM926.51 45.224h6.11v32.071h-6.11z" style="fill:#fff;fill-opacity:1;fill-rule:nonzero;stroke:none"/><g style="fill:#fff"><path d="m0 0-14.344 20.925-.052-.038v.207h-6.109v-32.071h6.109v21.18L0-10.812v-.165h6.106v32.071H0Z" style="fill:#fff;fill-opacity:1;fill-rule:nonzero;stroke:none" transform="translate(513.784 56.203)"/></g><g style="fill:#fff"><path d="m0 0 4.048 10.895L8.099 0Zm7.032 18.912H.341L-11.59-13.16h6.692l2.626 7.047h12.647l2.619-7.047h6.692L7.759 18.912Z" style="fill:#fff;fill-opacity:1;fill-rule:nonzero;stroke:none" transform="translate(532.493 58.385)"/></g><g style="fill:#fff"><path d="M0 0h-9.611v6.885H0c1.934 0 3.569-1.581 3.569-3.446C3.569 1.573 1.934 0 0 0m-9.611 19.376H0c1.731 0 3.19-1.404 3.19-3.057 0-1.666-1.459-3.056-3.19-3.056h-9.611Zm19.17-3.057c0 5.198-4.289 9.429-9.559 9.429h-15.982v-32.12H0c5.487 0 9.944 4.403 9.944 9.811a9.719 9.719 0 0 1-2.705 6.726 9.326 9.326 0 0 1 2.32 6.154" style="fill:#fff;fill-opacity:1;fill-rule:nonzero;stroke:none" transform="translate(403.25 51.881)"/></g><g style="fill:#fff"><path d="M0 0h-10.138v6.113H0c1.735 0 3.19-1.404 3.19-3.056C3.19 1.391 1.735 0 0 0m9.562 3.057c0 5.197-4.285 9.428-9.562 9.428h-16.505v-32.033h6.367v13.17H0c1.934 0 3.576-1.58 3.576-3.446v-9.724h6.368v9.724a9.728 9.728 0 0 1-2.702 6.723 9.314 9.314 0 0 1 2.32 6.158" style="fill:#fff;fill-opacity:1;fill-rule:nonzero;stroke:none" transform="translate(882.731 65.144)"/></g><g style="fill:#fff"><path d="m0 0-14.34 20.925-.062-.038v.207h-6.1v-32.071h6.1v21.18L0-10.812v-.165h6.106v32.071H0Z" style="fill:#fff;fill-opacity:1;fill-rule:nonzero;stroke:none" transform="translate(647.616 56.203)"/></g><g style="fill:#fff"><path d="m0 0 4.048 10.888L8.096 0Zm7.029 18.912H.341L-11.586-13.16h6.691l2.626 7.047h12.641l2.623-7.047h6.691L7.759 18.912Z" style="fill:#fff;fill-opacity:1;fill-rule:nonzero;stroke:none" transform="translate(668.073 58.385)"/></g><g style="fill:#fff"><path d="m0 0-8.943 24.054h-6.688l11.92-32.071H3.714l11.924 32.071H8.946Z" style="fill:#fff;fill-opacity:1;fill-rule:nonzero;stroke:none" transform="translate(820.466 53.242)"/></g><g style="fill:#fff"><path d="m0 0-8.365-11.903L-16.723 0h-7.789l13.046-18.516v-13.555h6.199v13.555L7.779 0Z" style="fill:#fff;fill-opacity:1;fill-rule:nonzero;stroke:none" transform="translate(990.386 77.296)"/></g><g style="fill:#fff"><path d="m0 0-14.336 20.925-.056-.038v.207h-6.106v-32.071h6.106v21.18L0-10.812v-.165h6.113v32.071H0Z" style="fill:#fff;fill-opacity:1;fill-rule:nonzero;stroke:none" transform="translate(783.739 56.203)"/></g><g style="fill:#fff"><path d="M0 0c-.978.671-1.917 1.164-2.805 1.491-.888.33-1.873.63-2.94.895a.774.774 0 0 0-.272.044c-.379.114-.627.183-.709.183-2.231.564-3.835.991-4.812 1.29-.984.293-1.773.578-2.365.865-.596.285-1.009.608-1.246.981-.238.375-.362.87-.362 1.497 0 1.212.479 2.12 1.429 2.709.947.599 2.082.898 3.394.898 1.869 0 3.359-.358 4.471-1.074 1.115-.709 1.721-1.958 1.807-3.735h6.775c0 1.777-.344 3.322-1.026 4.63-.685 1.308-1.608 2.379-2.785 3.212-1.174.833-2.53 1.435-4.058 1.824-1.529.386-3.157.579-4.874.579-1.491 0-2.936-.204-4.348-.603a12.596 12.596 0 0 1-3.835-1.8 9.023 9.023 0 0 1-2.719-3.033c-.667-1.218-1.001-2.616-1.001-4.186 0-1.428.261-2.657.781-3.686A7.208 7.208 0 0 1-19.404.447a12.164 12.164 0 0 1 2.916-1.634c1.074-.41 2.3-.806 3.7-1.202a42.72 42.72 0 0 0 2.052-.53c1.308-.3 2.344-.564 3.118-.802.771-.234 1.488-.53 2.135-.871.657-.347 1.177-.754 1.566-1.246.385-.492.575-1.091.575-1.807 0-.771-.19-1.415-.575-1.938a3.988 3.988 0 0 0-1.539-1.229 8.082 8.082 0 0 0-2.003-.623 12.586 12.586 0 0 0-2.076-.172c-2.051 0-3.738.485-5.056 1.446-1.322.97-1.983 2.444-1.983 4.433h-6.778c0-1.903.362-3.569 1.095-5.012a10.067 10.067 0 0 1 2.984-3.569c1.263-.937 2.706-1.622 4.323-2.066a19.273 19.273 0 0 1 5.15-.674c4.186 0 7.439.943 9.758 2.833 2.317 1.883 3.474 4.341 3.474 7.373 0 1.607-.33 2.981-.978 4.124C1.8-1.573.984-.668 0 0" style="fill:#fff;fill-opacity:1;fill-rule:nonzero;stroke:none" transform="translate(918.496 61.73)"/></g></g></svg>